<svg width="16" height="16" viewBox="0 0 16 16" fill="none" xmlns="http://www.w3.org/2000/svg">
<path fill-rule="evenodd" clip-rule="evenodd" d="M1 2.5L1.5 2H2V14H1.5L1 13.5V2.5Z" fill="#C5C5C5"/>
<path fill-rule="evenodd" clip-rule="evenodd" d="M2 2H4V3H2V2Z" fill="#C5C5C5"/>
<path fill-rule="evenodd" clip-rule="evenodd" d="M2 13H4V14H2V13Z" fill="#C5C5C5"/>
<path fill-rule="evenodd" clip-rule="evenodd" d="M14 2L15 3V13.5L14.5 14H14V2Z" fill="#C5C5C5"/>
<path fill-rule="evenodd" clip-rule="evenodd" d="M12 2H14.5L15 2.5V3H12V2Z" fill="#C5C5C5"/>
<path fill-rule="evenodd" clip-rule="evenodd" d="M12 13H14V14H12V13Z" fill="#C5C5C5"/>
<mask id="path-7-inside-1" fill="white">
<path fill-rule="evenodd" clip-rule="evenodd" d="M13 5.0867L8 2.19995L3 5.0867V10.8602L8 13.747L13 10.8602V5.0867ZM7 11H7.40217H7.6H8.6H9H10V10H9.6H9H8.6V9V7V6H9H9.6H10V5H9H8.6H8.4H7.6H7.4H7H6V6H6.4H7H7.4V7V10L6 10.006V11H6.00426H7Z"/>
</mask>
<path fill-rule="evenodd" clip-rule="evenodd" d="M13 5.0867L8 2.19995L3 5.0867V10.8602L8 13.747L13 10.8602V5.0867ZM7 11H7.40217H7.6H8.6H9H10V10H9.6H9H8.6V9V7V6H9H9.6H10V5H9H8.6H8.4H7.6H7.4H7H6V6H6.4H7H7.4V7V10L6 10.006V11H6.00426H7Z" fill="#89D185"/>
<path d="M8 2.19995L8.5 1.33393L8 1.04525L7.5 1.33393L8 2.19995ZM13 5.0867H14V4.50935L13.5 4.22068L13 5.0867ZM3 5.0867L2.5 4.22068L2 4.50935V5.0867H3ZM3 10.8602H2V11.4376L2.5 11.7262L3 10.8602ZM8 13.747L7.5 14.613L8 14.9017L8.5 14.613L8 13.747ZM13 10.8602L13.5 11.7262L14 11.4376V10.8602H13ZM10 11V12H11V11H10ZM10 10H11V9H10V10ZM8.6 10H7.6V11H8.6V10ZM8.6 6V5H7.6V6H8.6ZM10 6V7H11V6H10ZM10 5H11V4H10V5ZM6 5V4H5V5H6ZM6 6H5V7H6V6ZM7.4 6H8.4V5H7.4V6ZM7.4 10L7.40429 11L8.4 10.9957V10H7.4ZM6 10.006L5.99571 9.00601L5 9.01028V10.006H6ZM6 11H5V12H6V11ZM7.5 3.06598L12.5 5.95273L13.5 4.22068L8.5 1.33393L7.5 3.06598ZM3.5 5.95273L8.5 3.06598L7.5 1.33393L2.5 4.22068L3.5 5.95273ZM4 10.8602V5.0867H2V10.8602H4ZM8.5 12.8809L3.5 9.99418L2.5 11.7262L7.5 14.613L8.5 12.8809ZM12.5 9.99418L7.5 12.8809L8.5 14.613L13.5 11.7262L12.5 9.99418ZM12 5.0867V10.8602H14V5.0867H12ZM7.40217 10H7V12H7.40217V10ZM7.6 10H7.40217V12H7.6V10ZM8.6 10H7.6V12H8.6V10ZM9 10H8.6V12H9V10ZM10 10H9V12H10V10ZM9 10V11H11V10H9ZM9.6 11H10V9H9.6V11ZM9 11H9.6V9H9V11ZM8.6 11H9V9H8.6V11ZM7.6 9V10H9.6V9H7.6ZM7.6 7V9H9.6V7H7.6ZM7.6 6V7H9.6V6H7.6ZM9 5H8.6V7H9V5ZM9.6 5H9V7H9.6V5ZM10 5H9.6V7H10V5ZM9 5V6H11V5H9ZM9 6H10V4H9V6ZM8.6 6H9V4H8.6V6ZM8.4 6H8.6V4H8.4V6ZM7.6 6H8.4V4H7.6V6ZM7.4 6H7.6V4H7.4V6ZM7 6H7.4V4H7V6ZM6 6H7V4H6V6ZM7 6V5H5V6H7ZM6.4 5H6V7H6.4V5ZM7 5H6.4V7H7V5ZM7.4 5H7V7H7.4V5ZM8.4 7V6H6.4V7H8.4ZM8.4 10V7H6.4V10H8.4ZM6.00429 11.006L7.40429 11L7.39571 9.00001L5.99571 9.00601L6.00429 11.006ZM7 11V10.006H5V11H7ZM6.00426 10H6V12H6.00426V10ZM7 10H6.00426V12H7V10Z" fill="#89D185" mask="url(#path-7-inside-1)"/>
</svg>
