<svg width="16" height="16" viewBox="0 0 16 16" fill="none" xmlns="http://www.w3.org/2000/svg">
<path fill-rule="evenodd" clip-rule="evenodd" d="M12.25 16H13.75V14.5H12.25V16ZM13 7C12.2044 7 11.4413 7.31607 10.8787 7.87868C10.3161 8.44129 10 9.20435 10 10H11.5C11.5 9.175 12.175 8.5 13 8.5C13.825 8.5 14.5 9.175 14.5 10C14.5 11.5 12.25 11.313 12.25 13.75H13.75C13.75 12.062 16 11.875 16 10C16 9.20435 15.6839 8.44129 15.1213 7.87868C14.5587 7.31607 13.7956 7 13 7Z" fill="#75BEFF"/>
<path d="M1.5 9.02073L4 7.57735L6.5 9.02073V11.9075L4 13.3509L1.5 11.9075V9.02073Z" stroke="#C5C5C5"/>
<path d="M5 3.02073L7.5 1.57735L10 3.02073V5.90748L7.5 7.35085L5 5.90748V3.02073Z" stroke="#C5C5C5"/>
<mask id="path-4-inside-1" fill="white">
<path fill-rule="evenodd" clip-rule="evenodd" d="M9.68753 7.75781L8 8.73211V12.1962L11 13.9283L11.25 13.7839V13.5001H11.2565C11.2916 12.8386 11.2565 12.8315 11.2565 12.8315L9 11.5001V10.0001C9 9.19502 9.24268 8.415 9.68753 7.75781Z"/>
</mask>
<path d="M8 8.73211L7.5 7.86608L7 8.15476V8.73211H8ZM9.68753 7.75781L10.5156 8.31836L9.18753 6.89179L9.68753 7.75781ZM8 12.1962H7V12.7736L7.5 13.0622L8 12.1962ZM11 13.9283L10.5 14.7943L11 15.083L11.5 14.7943L11 13.9283ZM11.25 13.7839L11.75 14.6499L12.25 14.3613V13.7839H11.25ZM11.25 13.5001V12.5001H10.25V13.5001H11.25ZM11.2565 13.5001V14.5001H12.2049L12.2551 13.553L11.2565 13.5001ZM11.2565 12.8315L10.7483 13.6928L10.894 13.7788L11.0599 13.812L11.2565 12.8315ZM9 11.5001H8V12.0711L8.49181 12.3613L9 11.5001ZM8.5 9.59813L10.1875 8.62384L9.18753 6.89179L7.5 7.86608L8.5 9.59813ZM9 12.1962V8.73211H7V12.1962H9ZM11.5 13.0622L8.5 11.3302L7.5 13.0622L10.5 14.7943L11.5 13.0622ZM10.75 12.9179L10.5 13.0622L11.5 14.7943L11.75 14.6499L10.75 12.9179ZM12.25 13.7839V13.5001H10.25V13.7839H12.25ZM11.25 14.5001H11.2565V12.5001H11.25V14.5001ZM12.2551 13.553C12.2731 13.2137 12.2755 13.0042 12.2683 12.8659C12.2651 12.8044 12.258 12.7065 12.2318 12.6011C12.2196 12.5524 12.1891 12.4414 12.1154 12.3185C12.0764 12.2536 12.0111 12.1612 11.9079 12.0727C11.8549 12.0273 11.7903 11.9814 11.713 11.9418C11.6744 11.922 11.6332 11.904 11.5894 11.8886C11.5676 11.8809 11.5452 11.8738 11.5225 11.8676C11.5111 11.8644 11.4996 11.8615 11.4881 11.8587C11.4823 11.8574 11.4736 11.8554 11.4707 11.8547C11.4619 11.8529 11.4532 11.8511 11.2565 12.8315C11.0599 13.812 11.0511 13.8102 11.0424 13.8083C11.0395 13.8077 11.0308 13.8057 11.025 13.8044C11.0134 13.8016 11.002 13.7987 10.9906 13.7955C10.9678 13.7893 10.9455 13.7822 10.9237 13.7745C10.88 13.7591 10.8388 13.7411 10.8002 13.7214C10.7231 13.6818 10.6586 13.6361 10.6059 13.5909C10.5032 13.5028 10.4386 13.4112 10.4005 13.3477C10.3286 13.2278 10.3006 13.1226 10.2912 13.0849C10.2704 13.0014 10.2698 12.9466 10.271 12.9696C10.2726 13.0001 10.275 13.1249 10.2579 13.4471L12.2551 13.553ZM11.7647 11.9703L9.50819 10.6388L8.49181 12.3613L10.7483 13.6928L11.7647 11.9703ZM10 11.5001V10.0001H8V11.5001H10ZM10 10.0001C10 9.39632 10.182 8.8113 10.5156 8.31836L8.85941 7.19726C8.30338 8.01871 8 8.99372 8 10.0001H10Z" fill="#C5C5C5" mask="url(#path-4-inside-1)"/>
</svg>
