<svg width="16" height="16" viewBox="0 0 16 16" fill="none" xmlns="http://www.w3.org/2000/svg">
<path d="M13.0841 15V13.9062C12.9226 13.849 12.7664 13.7604 12.6153 13.6406L11.67 14.1797L11.17 13.3203L12.1075 12.7734C12.0919 12.6901 12.0841 12.599 12.0841 12.5C12.0841 12.4062 12.0919 12.3151 12.1075 12.2266L11.17 11.6797L11.67 10.8203L12.6153 11.3594C12.7664 11.2396 12.9226 11.151 13.0841 11.0938V10H14.0841V11.0938C14.1726 11.125 14.2533 11.1615 14.3263 11.2031C14.3992 11.2448 14.4747 11.2969 14.5528 11.3594L15.4981 10.8203L15.9981 11.6797L15.0606 12.2266C15.0763 12.3151 15.0841 12.4062 15.0841 12.5C15.0841 12.599 15.0763 12.6901 15.0606 12.7734L15.9981 13.3203L15.4981 14.1797L14.5528 13.6406C14.4799 13.6979 14.407 13.7474 14.3341 13.7891C14.2612 13.8307 14.1778 13.8698 14.0841 13.9062V15H13.0841ZM12.8341 12.5C12.8341 12.7083 12.907 12.8854 13.0528 13.0312C13.1987 13.1771 13.3757 13.25 13.5841 13.25C13.7924 13.25 13.9695 13.1771 14.1153 13.0312C14.2612 12.8854 14.3341 12.7083 14.3341 12.5C14.3341 12.2917 14.2612 12.1146 14.1153 11.9688C13.9695 11.8229 13.7924 11.75 13.5841 11.75C13.3757 11.75 13.1987 11.8229 13.0528 11.9688C12.907 12.1146 12.8341 12.2917 12.8341 12.5Z" fill="#C5C5C5"/>
<path fill-rule="evenodd" clip-rule="evenodd" d="M4 5H5V8.5C4.99998 9.32841 4.32841 9.99996 3.5 9.99996C2.89612 9.99996 2.37559 9.64311 2.13777 9.12878L3.01507 8.62227C3.06964 8.83929 3.26605 8.99996 3.5 8.99996C3.77613 8.99996 3.99998 8.77612 4 8.5V5ZM9 5H8L7 8.33333L6 5H5L6.5 10H7.5L9 5ZM9 5H10L11 6.8L12 5H13V9H12V6.75L11 8.5L10 6.75V10H9V5Z" fill="#75BEFF"/>
<path d="M1.5 11.9999L10 12V11L2 10.9999V3.99994H14V8.99994H15V3.49994L14.5 2.99994H1.5L1 3.49994V11.4999L1.5 11.9999Z" fill="#75BEFF"/>
</svg>
