<svg width="16" height="16" viewBox="0 0 16 16" fill="none" xmlns="http://www.w3.org/2000/svg">
<path d="M1.5 9.02073L4 7.57735L6.5 9.02073V11.9075L4 13.3509L1.5 11.9075V9.02073Z" stroke="#C5C5C5"/>
<path d="M5 3.02073L7.5 1.57735L10 3.02073V5.90748L7.5 7.35085L5 5.90748V3.02073Z" stroke="#C5C5C5"/>
<mask id="path-3-inside-1" fill="white">
<path fill-rule="evenodd" clip-rule="evenodd" d="M14 8.73205L11 7L8 8.73205V12.1962L9 12.7735V9H14V8.73205Z"/>
</mask>
<path d="M11 7L11.5 6.13397L11 5.8453L10.5 6.13397L11 7ZM14 8.73205H15V8.1547L14.5 7.86603L14 8.73205ZM8 8.73205L7.5 7.86603L7 8.1547V8.73205H8ZM8 12.1962H7V12.7735L7.5 13.0622L8 12.1962ZM9 12.7735L8.5 13.6395L10 14.5056V12.7735H9ZM9 9V8H8V9H9ZM14 9V10H15V9H14ZM10.5 7.86603L13.5 9.59808L14.5 7.86603L11.5 6.13397L10.5 7.86603ZM8.5 9.59808L11.5 7.86603L10.5 6.13397L7.5 7.86603L8.5 9.59808ZM9 12.1962V8.73205H7V12.1962H9ZM9.5 11.9075L8.5 11.3301L7.5 13.0622L8.5 13.6395L9.5 11.9075ZM10 12.7735V9H8V12.7735H10ZM9 10H14V8H9V10ZM13 8.73205V9H15V8.73205H13Z" fill="#C5C5C5" mask="url(#path-3-inside-1)"/>
<path d="M10 10H16V16H10V10Z" fill="#F48771"/>
</svg>
