<svg width="16" height="16" viewBox="0 0 16 16" fill="none" xmlns="http://www.w3.org/2000/svg">
<path d="M1.5 9.02073L4 7.57735L6.5 9.02073V11.9075L4 13.3509L1.5 11.9075V9.02073Z" stroke="#C5C5C5"/>
<path d="M5 3.02073L7.5 1.57735L10 3.02073V5.90748L7.5 7.35085L5 5.90748V3.02073Z" stroke="#C5C5C5"/>
<mask id="path-3-inside-1" fill="white">
<path fill-rule="evenodd" clip-rule="evenodd" d="M14 8.73205L11 7L9.77178 7.70911L14 10.1756V8.73205ZM9 12.7735V8.1547L8 8.73205V12.1962L9 12.7735Z"/>
</mask>
<path d="M11 7L11.5 6.13397L11 5.8453L10.5 6.13397L11 7ZM14 8.73205H15V8.1547L14.5 7.86603L14 8.73205ZM9.77178 7.70911L9.27178 6.84309L7.7795 7.70466L9.26791 8.57289L9.77178 7.70911ZM14 10.1756L13.4961 11.0394L15 11.9166V10.1756H14ZM9 12.7735L8.5 13.6395L10 14.5056V12.7735H9ZM9 8.1547H10V6.42265L8.5 7.28868L9 8.1547ZM8 8.73205L7.5 7.86603L7 8.1547V8.73205H8ZM8 12.1962H7V12.7735L7.5 13.0622L8 12.1962ZM10.5 7.86603L13.5 9.59808L14.5 7.86603L11.5 6.13397L10.5 7.86603ZM10.2718 8.57514L11.5 7.86603L10.5 6.13397L9.27178 6.84309L10.2718 8.57514ZM9.26791 8.57289L13.4961 11.0394L14.5039 9.3118L10.2756 6.84534L9.26791 8.57289ZM13 8.73205V10.1756H15V8.73205H13ZM10 12.7735V8.1547H8V12.7735H10ZM8.5 9.59808L9.5 9.02073L8.5 7.28868L7.5 7.86603L8.5 9.59808ZM9 12.1962V8.73205H7V12.1962H9ZM9.5 11.9075L8.5 11.3301L7.5 13.0622L8.5 13.6395L9.5 11.9075Z" fill="#C5C5C5" mask="url(#path-3-inside-1)"/>
<path d="M16 12.5L10 9V16L16 12.5Z" fill="#89D185"/>
</svg>
