<svg width="16" height="16" viewBox="0 0 16 16" fill="none" xmlns="http://www.w3.org/2000/svg">
<path fill-rule="evenodd" clip-rule="evenodd" d="M7.53333 3.35665V1H1V7.53333H3.35665C3.3946 7.15559 3.47809 6.79076 3.60149 6.44444H2.08889V2.08889H6.44444V3.60149C6.79076 3.47808 7.15559 3.3946 7.53333 3.35665ZM12.6543 7.53333H15V1H8.46667V3.35585C8.84332 3.39245 9.20769 3.47305 9.55556 3.59341V2.08889H13.9111V6.44444H12.5144C12.586 6.83008 12.6333 7.19338 12.6543 7.53333ZM8.46667 12.6433V15H15V8.46667H12.6433C12.6054 8.84441 12.5219 9.20924 12.3985 9.55556H13.9111V13.9111H9.55556V12.3985C9.20924 12.5219 8.84441 12.6054 8.46667 12.6433ZM3.35666 8.46667H1V15H7.53333V12.6433C7.15559 12.6054 6.79076 12.5219 6.44444 12.3985V13.9111H2.08889V9.55556H3.6015C3.47809 9.20924 3.3946 8.84441 3.35666 8.46667Z" fill="#75BEFF"/>
<path d="M12.6667 7.92221C12.6667 6.83332 12.3556 5.47221 11.8111 3.87777C11.6944 4.18888 11.5 4.4611 11.3444 4.69444C10.45 3.83888 9.28333 3.33332 8 3.33332C5.43333 3.33332 3.33333 5.43332 3.33333 7.99999C3.33333 10.5667 5.43333 12.6667 8 12.6667C10.5667 12.6667 12.6667 10.5667 12.6667 7.99999C12.6667 7.9611 12.6667 7.9611 12.6667 7.92221Z" fill="#5FB832"/>
<path d="M5.20002 11.6167C5.41479 11.6167 5.5889 11.4425 5.5889 11.2278C5.5889 11.013 5.41479 10.8389 5.20002 10.8389C4.98524 10.8389 4.81113 11.013 4.81113 11.2278C4.81113 11.4425 4.98524 11.6167 5.20002 11.6167Z" fill="white"/>
<path d="M11.7722 10.1C10.6056 11.6167 8.15558 11.1111 6.60002 11.1889C6.60002 11.1889 6.3278 11.1889 6.05558 11.2278C6.05558 11.2278 6.17224 11.1889 6.28891 11.15C7.3778 10.7611 7.92224 10.6833 8.58335 10.3333C9.86669 9.67222 11.1111 8.27222 11.3445 6.79444C10.8778 8.23333 9.40002 9.43888 8.0778 9.90555C7.18335 10.2556 5.51113 10.5667 5.51113 10.5667L5.43335 10.5278C4.30558 9.98333 4.26669 7.53333 6.28891 6.75555C7.18335 6.40555 8.03891 6.6 9.01113 6.36666C10.0611 6.09444 11.2278 5.35555 11.7334 4.34444C12.3167 6.01666 12.9389 8.54444 11.7722 10.1Z" fill="white"/>
</svg>
