<svg width="16" height="16" viewBox="0 0 16 16" fill="none" xmlns="http://www.w3.org/2000/svg">
<path fill-rule="evenodd" clip-rule="evenodd" d="M13 5.0867L8 2.19995L3 5.0867V10.8602L8 13.747L13 10.8602V5.0867ZM8.6 6V10H10V11H6V10.006L7.4 10V6H6V5H10V6H8.6Z" fill="#388A34"/>
<path fill-rule="evenodd" clip-rule="evenodd" d="M1 2.5L1.5 2H2V14H1.5L1 13.5V2.5Z" fill="#424242"/>
<path fill-rule="evenodd" clip-rule="evenodd" d="M2 2H4V3H2V2Z" fill="#424242"/>
<path fill-rule="evenodd" clip-rule="evenodd" d="M2 13H4V14H2V13Z" fill="#424242"/>
<path fill-rule="evenodd" clip-rule="evenodd" d="M14 2L15 3V13.5L14.5 14H14V2Z" fill="#424242"/>
<path fill-rule="evenodd" clip-rule="evenodd" d="M12 2H14.5L15 2.5V3H12V2Z" fill="#424242"/>
<path fill-rule="evenodd" clip-rule="evenodd" d="M12 13H14V14H12V13Z" fill="#424242"/>
</svg>
