<svg width="16" height="16" viewBox="0 0 16 16" fill="none" xmlns="http://www.w3.org/2000/svg">
<path d="M1.5 9.02073L4 7.57735L6.5 9.02073V11.9075L4 13.3509L1.5 11.9075V9.02073Z" stroke="#424242"/>
<path d="M5 3.02073L7.5 1.57735L10 3.02073V5.90748L7.5 7.35085L5 5.90748V3.02073Z" stroke="#424242"/>
<mask id="path-3-inside-1" fill="white">
<path fill-rule="evenodd" clip-rule="evenodd" d="M12.7432 8.00646L11 7L8 8.73205V12.1962L8.00973 12.2018C8.16324 9.85552 10.1149 8 12.5 8C12.5816 8 12.6627 8.00217 12.7432 8.00646Z"/>
</mask>
<path d="M11 7L11.5 6.13397L11 5.8453L10.5 6.13397L11 7ZM12.7432 8.00646L12.6901 9.00505L13.2432 7.14044L12.7432 8.00646ZM8 8.73205L7.5 7.86603L7 8.1547V8.73205H8ZM8 12.1962H7V12.7735L7.50001 13.0622L8 12.1962ZM8.00973 12.2018L7.50974 13.0678L8.90259 13.8719L9.00759 12.2671L8.00973 12.2018ZM10.5 7.86603L12.2432 8.87249L13.2432 7.14044L11.5 6.13397L10.5 7.86603ZM8.5 9.59808L11.5 7.86603L10.5 6.13397L7.5 7.86603L8.5 9.59808ZM9 12.1962V8.73205H7V12.1962H9ZM8.50971 11.3357L8.49999 11.3301L7.50001 13.0622L7.50974 13.0678L8.50971 11.3357ZM9.00759 12.2671C9.12693 10.4432 10.6453 9 12.5 9V7C9.58452 7 7.19955 9.26789 7.01186 12.1365L9.00759 12.2671ZM12.5 9C12.5639 9 12.6272 9.0017 12.6901 9.00505L12.7964 7.00788C12.6982 7.00264 12.5994 7 12.5 7V9Z" fill="#424242" mask="url(#path-3-inside-1)"/>
<path fill-rule="evenodd" clip-rule="evenodd" d="M12.5 16C14.433 16 16 14.433 16 12.5C16 10.567 14.433 9 12.5 9C10.567 9 9 10.567 9 12.5C9 14.433 10.567 16 12.5 16ZM10.7322 11.4393L11.4393 10.7322L12.5 11.7929L13.5607 10.7323L14.2678 11.4394L13.2071 12.5L14.2678 13.5607L13.5607 14.2678L12.5 13.2071L11.4393 14.2678L10.7322 13.5607L11.7929 12.5L10.7322 11.4393Z" fill="#A1260D"/>
</svg>
