<svg width="16" height="16" viewBox="0 0 16 16" fill="none" xmlns="http://www.w3.org/2000/svg">
<path fill-rule="evenodd" clip-rule="evenodd" d="M6 1L12 4.4641V7H9.5V8.5H8V10H6.6V6H8V5H4V6H5.4V10L4 10.006V11H8V13.7017L6 14.8564L0 11.3923V4.4641L6 1Z" fill="#388A34"/>
<path fill-rule="evenodd" clip-rule="evenodd" d="M12 8V9H13V8H14V9H15V10H16V11H15V12H16V13H15V14H14V15H13V14H12V15H11L11 14H10V13H9V12H10V11H9V10H10V9H11V8H12ZM12 10H13H14V11V12V13H13H12H11V12V11L11 10H12ZM13 11H12V12H13V11Z" fill="#424242"/>
</svg>
