<svg width="16" height="16" viewBox="0 0 16 16" fill="none" xmlns="http://www.w3.org/2000/svg">
<path fill-rule="evenodd" clip-rule="evenodd" d="M10 10V9C10 8.44772 11.3431 8 13 8C14.6569 8 16 8.44772 16 9V10C16 10.5523 14.6569 11 13 11C11.3431 11 10 10.5523 10 10Z" fill="#424242"/>
<path fill-rule="evenodd" clip-rule="evenodd" d="M13 14C14.6569 14 16 13.5523 16 13V14C16 14.5523 14.6569 15 13 15C11.3431 15 10 14.5523 10 14V13C10 13.5523 11.3431 14 13 14Z" fill="#424242"/>
<path fill-rule="evenodd" clip-rule="evenodd" d="M13 12C14.6569 12 16 11.5523 16 11V12C16 12.5523 14.6569 13 13 13C11.3431 13 10 12.5523 10 12V11C10 11.5523 11.3431 12 13 12Z" fill="#424242"/>
<path fill-rule="evenodd" clip-rule="evenodd" d="M7 1L13 4.4641V7.10451C12.2146 7.14388 11.4811 7.26818 10.8863 7.46644C10.5267 7.58633 10.1569 7.75312 9.85468 7.99132C9.56473 8.21982 9.18182 8.64461 9.18182 9.27276V13.5967L7 14.8564L1 11.3923V4.4641L7 1ZM7.6 6V10H9V11H5V10.006L6.4 10V6H5V5H9V6H7.6Z" fill="#388A34"/>
</svg>
