<svg width="16" height="16" viewBox="0 0 16 16" fill="none" xmlns="http://www.w3.org/2000/svg">
<path d="M1.5 9.02073L4 7.57735L6.5 9.02073V11.9075L4 13.3509L1.5 11.9075V9.02073Z" stroke="#424242"/>
<path d="M5 3.02073L7.5 1.57735L10 3.02073V5.90748L7.5 7.35085L5 5.90748V3.02073Z" stroke="#424242"/>
<path fill-rule="evenodd" clip-rule="evenodd" d="M16 10H11V11L13.5 13L11 15V16H16V15L13.5 13L16 11V10Z" fill="#007ACC"/>
<path fill-rule="evenodd" clip-rule="evenodd" d="M9 9.3094L11 8.1547L12.4641 9H14V8.73205L11 7L8 8.73205V12.1962L10.8484 13.8407L11.8992 13L11.3578 12.5669L11 12.7735L9 11.6188V9.3094Z" fill="#424242"/>
</svg>
