<svg width="16" height="16" viewBox="0 0 16 16" fill="none" xmlns="http://www.w3.org/2000/svg">
<path d="M1.5 9.02073L4 7.57735L6.5 9.02073V11.9075L4 13.3509L1.5 11.9075V9.02073Z" stroke="#424242"/>
<path d="M5 3.02073L7.5 1.57735L10 3.02073V5.90748L7.5 7.35085L5 5.90748V3.02073Z" stroke="#424242"/>
<path d="M12.875 16H14.125V14.75H12.875V16ZM13.5 8.5C12.837 8.5 12.2011 8.76339 11.7322 9.23223C11.2634 9.70107 11 10.337 11 11H12.25C12.25 10.312 12.813 9.75 13.5 9.75C14.188 9.75 14.75 10.313 14.75 11C14.75 12.25 12.875 12.094 12.875 14.125H14.125C14.125 12.719 16 12.562 16 11C16 10.337 15.7366 9.70107 15.2678 9.23223C14.7989 8.76339 14.163 8.5 13.5 8.5Z" fill="#424242"/>
<path fill-rule="evenodd" clip-rule="evenodd" d="M9 11.6188V9.3094L11 8.1547L11.2642 8.30721C11.5632 8.05887 11.9 7.86349 12.2595 7.72719L11 7L8 8.73205V12.1962L11 13.9282L11.6586 13.548L10.551 12.5143L9 11.6188Z" fill="#424242"/>
</svg>
