<svg width="16" height="16" viewBox="0 0 16 16" fill="none" xmlns="http://www.w3.org/2000/svg">
<path fill-rule="evenodd" clip-rule="evenodd" d="M1 2H2V3H1V2ZM1 4H2V5H1V4ZM2 6H1V7H2V6ZM1 8H2V9H1V8ZM2 10H1V11H2V10ZM1 12H2V13H1V12ZM2 14H1V15H2V14ZM3 14H4V15H3V14ZM6 14H5V15H6V14ZM7 14H8V15H7V14ZM10 14H9V15H10V14ZM11 14H12V15H11V14ZM14 14H13V15H14V14ZM13 12H14V13H13V12ZM14 10H13V11H14V10ZM13 8H14V9H13V8ZM4 2H3V3H4V2ZM5 2H6V3H5V2ZM8 2H7V3H8V2Z" fill="#424242"/>
<path d="M15 2.5L15.0001 6.99997H14.0001L14 3.7071L7.24269 10.4644L6.53558 9.75734L13.2929 3L10 3V2H14.5L15 2.5Z" fill="#007ACC"/>
<path d="M3.5 4.00006L8 4V5L4 5.00006V12.0001H11V8.00006H12V12.5001L11.5 13.0001H3.5L3 12.5001V4.50006L3.5 4.00006Z" fill="#424242"/>
</svg>
